<svg width="500" height="134" viewBox="0 0 1033 134" fill="none" xmlns="http://www.w3.org/2000/svg">
<g filter="url(#filter0_b_47_2)">
<path d="M7.4083 105.961C7.895 106.123 8.92249 106.502 10.4908 107.097C12.1131 107.638 13.8977 108.097 15.8445 108.476V32.063L3.10906 27.7638C1.86526 24.8435 1.24335 21.4907 1.24335 17.7052C1.24335 14.6227 1.73006 11.8647 2.70347 9.43117C6.59712 8.40368 11.2749 7.61954 16.7368 7.07876C22.2528 6.48389 27.5796 6.18646 32.717 6.18646C40.3421 6.18646 47.0748 6.75429 52.9153 7.88993C55.6192 13.1355 59.6211 23.0049 64.9207 37.4979C70.2745 51.9909 76.7098 70.9995 84.2267 94.5236L85.6058 94.3614C84.0375 81.004 82.4692 65.3483 80.9009 47.3942C79.3867 29.3861 78.6296 17.0562 78.6296 10.4046C81.4417 9.1067 84.5783 8.10625 88.0393 7.40323C91.5003 6.64613 94.6909 6.26758 97.6112 6.26758C102.37 6.26758 106.94 7.24099 111.32 9.18782L103.452 111.721C106.264 115.776 108.021 120.535 108.724 125.997C106.507 128.431 103.127 130.324 98.5846 131.676C94.0961 132.973 89.3101 133.622 84.2267 133.622C80.279 133.622 76.6828 133.217 73.4381 132.406C70.2475 131.594 67.7599 130.351 65.9753 128.674C66.0293 124.618 66.3809 120.914 67.0298 117.561C62.9739 109.449 59.0532 100.526 55.2677 90.7922C51.5363 81.004 46.7774 68.0252 40.991 51.8557L37.4218 41.9594L36.9351 42.0405C38.0708 50.4767 39.2875 62.9148 40.5854 79.3546C41.8833 95.7404 42.5323 107.719 42.5323 115.29C42.5323 121.347 40.7206 125.916 37.0974 128.999C33.5282 132.081 27.9311 133.622 20.306 133.622C17.9266 133.622 15.3849 133.163 12.6809 132.243C9.97702 131.324 7.51645 130.161 5.29924 128.755C3.1361 127.295 1.6219 125.889 0.756647 124.537C0.756647 120.644 1.35151 116.939 2.54124 113.424C3.73096 109.909 5.35332 107.421 7.4083 105.961ZM122.433 84.8706C122.433 75.515 124.001 67.1599 127.138 59.8053C130.275 52.4506 135.115 46.6372 141.658 42.365C148.256 38.0387 156.476 35.8755 166.318 35.8755C171.455 35.8755 176.593 36.4974 181.73 37.7412C186.868 38.931 191.221 40.9319 194.79 43.744C198.089 46.3938 200.468 49.9089 201.929 54.2893C203.443 58.6155 204.2 63.4285 204.2 68.7282C204.2 72.2433 203.902 75.8395 203.308 79.5169C202.659 80.5984 201.388 82.0315 199.495 83.8161C197.602 85.5466 195.385 87.2501 192.843 88.9265C190.302 90.6029 187.841 91.9008 185.462 92.8202C183.19 92.9824 180.838 93.0635 178.404 93.0635C174.132 93.0635 169.806 92.8742 165.426 92.4957C161.045 92.1171 157.206 91.6845 153.907 91.1978C154.339 95.7945 155.746 99.7963 158.125 103.203C160.504 106.61 164.29 108.314 169.481 108.314C169.968 108.314 170.752 108.26 171.834 108.151C175.133 107.827 178.972 106.962 183.353 105.556C187.787 104.096 192.194 102.419 196.575 100.526C198.63 102.581 200.144 104.636 201.117 106.691C202.091 108.746 202.767 111.694 203.145 115.533C201.469 117.48 198.738 119.859 194.952 122.671C191.221 125.484 186.651 128.025 181.244 130.297C175.836 132.514 170.184 133.622 164.29 133.622C155.421 133.622 147.823 131.486 141.496 127.214C135.223 122.888 130.464 117.047 127.219 109.693C124.028 102.284 122.433 94.0099 122.433 84.8706ZM174.673 66.2136C173.916 65.4024 172.645 64.7805 170.86 64.3478C169.076 63.8611 167.21 63.6178 165.263 63.6178C163.695 63.6178 162.1 63.753 160.477 64.0234C158.909 64.2938 157.963 64.5912 157.638 64.9157C155.8 68.5389 154.637 72.6489 154.15 77.2456L175.809 75.1365L174.673 66.2136ZM221.559 87.223C221.559 78.4082 221.694 70.3776 221.965 63.1311L213.123 61.5898C212.42 58.8859 211.933 56.5065 211.663 54.4515C211.392 52.3965 211.257 50.2063 211.257 47.881L211.419 46.2586C211.582 45.5015 211.663 44.8796 211.663 44.3929L223.425 41.7971C223.695 38.4443 224.317 34.6588 225.29 30.4407C226.264 26.2225 227.291 23.113 228.373 21.1121C230.103 19.8142 232.185 18.8408 234.619 18.1919C237.052 17.5429 239.675 17.2185 242.487 17.2185C244.867 17.2185 247.165 17.4618 249.382 17.9485C251.654 18.3812 253.628 18.976 255.304 19.7331C255.466 21.5718 255.547 23.6808 255.547 26.0603C255.547 29.9539 255.358 34.3613 254.979 39.2825L269.256 36.6867C271.257 40.1477 272.258 43.9062 272.258 47.9621C272.258 50.7742 271.906 53.3158 271.203 55.5871C270.554 57.8584 269.635 60.4272 268.445 63.2933C264.876 63.8882 259.982 64.2667 253.763 64.429C253.006 73.2438 251.329 86.1955 248.733 103.284L248.328 106.042L248.49 106.205L267.553 100.283C271.5 103.582 273.907 108.665 274.772 115.533C274.772 115.912 273.015 117.696 269.5 120.887C266.039 124.023 261.685 126.944 256.44 129.648C251.194 132.297 245.489 133.622 239.324 133.622C228.562 133.622 222.83 127.052 222.127 113.911C221.748 107.259 221.559 98.3632 221.559 87.223ZM278.26 66.538C276.638 61.8873 275.827 56.3983 275.827 50.0711C277.287 46.0152 279.693 42.6083 283.046 39.8503C286.399 37.0923 290.617 35.7133 295.701 35.7133C298.945 35.7133 301.757 36.3893 304.137 37.7412C306.516 39.0391 308.679 41.04 310.626 43.744C313.601 47.9621 315.899 53.8025 317.521 61.2654C318.927 67.8089 320.09 75.461 321.009 84.2217C321.983 92.9283 322.469 101.148 322.469 108.881L325.633 108.963C327.85 101.5 329.635 94.3884 330.987 87.6286C332.339 80.8688 333.339 72.8111 333.988 63.4556L324.416 61.5898C323.605 58.6696 323.037 56.155 322.713 54.0459C322.388 51.8828 322.226 49.5844 322.226 47.1509C322.226 45.7449 323.308 44.1495 325.471 42.365C327.634 40.5263 330.419 38.985 333.826 37.7412C337.287 36.4974 340.856 35.8755 344.533 35.8755C358.432 35.8755 365.381 42.8787 365.381 56.885C365.381 61.3735 364.407 66.2947 362.46 71.6484C365.597 82.4641 367.922 94.9022 369.437 108.963L370.897 109.044C373.114 103.852 375.115 96.822 376.899 87.9531C378.738 79.0301 379.657 70.7832 379.657 63.2122L371.708 61.671C370.897 58.7507 370.329 56.2361 370.004 54.127C369.68 51.9639 369.518 49.6655 369.518 47.232C369.518 45.826 370.464 44.2307 372.357 42.4461C374.304 40.6074 376.872 39.0662 380.063 37.8224C383.254 36.5245 386.634 35.8755 390.203 35.8755C404.425 35.8755 411.537 43.3113 411.537 58.1829C411.537 67.3222 409.833 76.8129 406.426 86.6552C403.019 96.4975 398.882 105.475 394.015 113.586C389.148 121.698 384.551 127.998 380.225 132.487C377.521 133.244 374.601 133.622 371.465 133.622C367.733 133.622 364.11 133.109 360.595 132.081C357.134 131.108 354.322 129.675 352.158 127.782C351.78 126.484 351.104 122.915 350.131 117.074C348.725 108.854 347.643 102.933 346.886 99.3096H345.263C342.289 112.288 337.909 123.158 332.122 131.919C329.148 133.055 325.336 133.622 320.685 133.622C316.737 133.622 312.979 133.19 309.409 132.324C305.84 131.513 303.163 130.297 301.379 128.674C300.676 123.699 299.27 116.939 297.161 108.395C295.052 99.8504 292.726 91.7115 290.185 83.9783C287.697 76.2451 285.507 70.7832 283.614 67.5926L278.26 66.538ZM419.486 84.0594C419.486 74.2712 421.054 65.7809 424.191 58.5885C427.328 51.3961 432.141 45.826 438.63 41.8782C445.119 37.8764 453.258 35.8755 463.046 35.8755C473.862 35.8755 482.352 37.9035 488.517 41.9594C494.682 45.9612 498.981 51.5313 501.415 58.6696C503.903 65.808 505.146 74.5416 505.146 84.8706C505.146 94.2262 503.497 102.581 500.198 109.936C496.954 117.237 492.032 123.023 485.435 127.295C478.891 131.513 470.861 133.622 461.343 133.622C446.634 133.622 435.98 129.107 429.383 120.076C422.785 110.991 419.486 98.9851 419.486 84.0594ZM464.669 109.855C467.427 109.855 469.103 109.639 469.698 109.206C470.942 107.043 471.888 103.987 472.537 100.04C473.186 96.0919 473.511 91.8197 473.511 87.223C473.511 83.0049 473.24 79.0572 472.699 75.3799C472.159 71.6484 471.401 68.7282 470.428 66.6191C469.833 65.9161 468.643 65.4024 466.859 65.0779C465.074 64.6994 463.127 64.5101 461.018 64.5101C458.26 64.5101 456.368 64.8075 455.34 65.4024C452.636 70.0531 451.284 76.5155 451.284 84.7895C451.284 88.6832 451.582 92.6579 452.177 96.7138C452.771 100.77 453.529 104.447 454.448 107.746C455.097 108.449 456.422 108.99 458.423 109.368C460.424 109.693 462.506 109.855 464.669 109.855ZM524.29 110.26C524.29 107.935 524.344 102.23 524.452 93.1446C524.615 75.2987 524.696 65.5376 524.696 63.8611L517.233 62.6444C516.205 59.5619 515.475 56.6687 515.043 53.9648C514.61 51.2609 514.394 48.5299 514.394 45.7719C514.394 44.6362 514.421 43.771 514.475 43.1761C515.394 42.365 516.827 41.3915 518.774 40.2559C520.721 39.1202 523.019 38.1198 525.669 37.2545C528.319 36.3352 531.023 35.8755 533.781 35.8755C540.216 35.8755 544.867 37.3086 547.733 40.1748C550.653 43.0409 552.114 47.232 552.114 52.748C552.114 56.1009 551.681 60.4001 550.816 65.6457C550.005 70.8373 549.166 74.5416 548.301 76.7589L551.221 77.2456L556.088 58.913C558.251 50.639 560.955 44.7444 564.2 41.2293C567.445 37.6601 571.095 35.8755 575.151 35.8755C577.801 35.8755 580.424 36.2811 583.019 37.0923C585.669 37.9035 587.697 38.9039 589.103 40.0937C590.617 43.4465 591.375 47.908 591.375 53.4781C591.375 57.3717 590.996 61.2383 590.239 65.0779C589.482 68.8634 588.508 71.9188 587.319 74.2442L570.284 71.9729C566.823 75.6502 563.146 80.7607 559.252 87.3042C555.358 93.7936 552.249 99.7692 549.923 105.231L549.842 109.449L565.579 105.718C568.229 109.774 569.77 114.587 570.203 120.157C570.203 120.481 568.986 121.806 566.553 124.132C564.119 126.457 560.901 128.62 556.9 130.621C552.952 132.568 548.409 133.541 543.272 133.541C537.972 133.541 533.538 132.135 529.968 129.323C526.453 126.457 524.588 121.644 524.371 114.884C524.317 114.073 524.29 112.532 524.29 110.26ZM602.001 79.598C602.001 54.2893 602.488 36.9301 603.461 27.5204L594.295 25.8981C592.997 20.9228 592.348 15.5691 592.348 9.83676C593.159 8.80927 594.673 7.53842 596.891 6.02423C599.108 4.51003 601.677 3.18511 604.597 2.04946C607.571 0.913814 610.518 0.34599 613.439 0.34599C620.685 0.34599 626.309 1.91427 630.311 5.05082C634.367 8.18737 636.395 13.5411 636.395 21.1121C636.395 24.8976 636.124 30.711 635.584 38.5524C635.043 46.3397 634.042 55.8035 632.582 66.9436C631.122 78.0838 629.175 89.7106 626.742 101.824L628.121 102.635C632.393 96.7408 636.503 90.2514 640.451 83.1672C644.398 76.0288 647.535 69.4042 649.86 63.2933L642.884 61.5898C642.235 57.9125 641.911 53.5592 641.911 48.5299V45.6097C643.966 43.0139 646.778 40.7426 650.347 38.7958C653.97 36.849 658.459 35.8755 663.813 35.8755C667.652 35.8755 670.978 36.6056 673.79 38.0657C676.602 39.4718 678.765 41.4456 680.28 43.9873C681.794 46.529 682.551 49.4492 682.551 52.748C682.551 55.2356 682.172 57.588 681.415 59.8053C680.658 61.9684 679.522 64.2667 678.008 66.7003C674.115 72.8652 667.328 81.6259 657.648 92.9824C660.892 97.525 664.056 101.473 667.138 104.826C668.328 104.231 669.437 103.447 670.464 102.473C671.546 101.5 672.925 100.094 674.601 98.255L676.386 96.3893L686.363 103.933C685.985 113.559 683.903 120.914 680.117 125.997C676.386 131.027 671.438 133.541 665.273 133.541C658.513 133.541 653.43 131.486 650.023 127.376C646.616 123.266 644.128 117.453 642.56 109.936C636.611 116.371 631.366 121.779 626.823 126.16C622.334 130.486 619.387 132.973 617.981 133.622C615.007 133.622 612.168 133.271 609.464 132.568C606.76 131.865 604.759 130.756 603.461 129.242C602.866 121.563 602.461 113.965 602.244 106.448C602.082 98.8769 602.001 89.927 602.001 79.598ZM739.495 67.5926C739.495 55.1004 739.712 44.0143 740.144 34.3343L729.193 32.6308C728.49 30.6299 727.95 28.4127 727.571 25.9792C727.193 23.5456 727.003 21.1932 727.003 18.9219C727.003 17.1914 727.139 15.2987 727.409 13.2437C734.493 10.7561 743.849 8.9715 755.476 7.88993C767.102 6.80837 778.459 6.26758 789.545 6.26758C797.819 6.26758 804.93 6.91652 810.879 8.21441C816.828 9.51229 821.803 12.4596 825.805 17.0562C829.861 21.5988 831.888 28.4127 831.888 37.4979C831.888 41.2293 831.294 45.3663 830.104 49.9089C828.914 54.3974 827.265 58.8859 825.156 63.3744C823.209 67.4844 820.992 71.4051 818.504 75.1365C816.071 78.8138 813.529 81.9774 810.879 84.6273C812.447 88.7372 814.07 92.4957 815.746 95.9026C817.423 99.2555 819.991 103.338 823.452 108.151L834.809 103.365C839.027 106.989 841.487 111.802 842.19 117.804C842.19 118.129 840.893 119.67 838.297 122.428C835.755 125.186 832.429 127.755 828.319 130.134C824.209 132.46 819.586 133.622 814.448 133.622C810.446 133.622 806.85 132.919 803.66 131.513C800.523 130.107 797.927 127.647 795.872 124.132C793.871 120.671 792.276 116.561 791.086 111.802C789.897 107.043 789.058 102.338 788.572 97.6872L770.077 96.876C770.564 101.094 771.185 105.447 771.943 109.936C772.7 114.37 773.159 117.047 773.322 117.967C774.241 123.32 774.836 126.971 775.106 128.918C772.619 130.432 769.59 131.594 766.021 132.406C762.506 133.217 758.91 133.622 755.232 133.622C751.014 133.622 746.931 133.055 742.984 131.919C741.794 127.16 740.901 118.832 740.307 106.935C739.766 94.9833 739.495 81.8693 739.495 67.5926ZM789.951 77.3267C791.843 71.9188 793.331 66.0513 794.412 59.7241C795.548 53.3429 796.575 45.7449 797.495 36.9301C795.926 36.3352 793.871 35.8755 791.33 35.5511C788.788 35.2266 786.327 35.0644 783.948 35.0644C778.54 35.0644 774.484 35.1996 771.78 35.4699C771.185 55.8035 770.536 70.2154 769.833 78.7057L789.951 77.3267ZM854.601 71.9729C854.601 55.6412 854.845 43.095 855.332 34.3343H855.25L843.651 32.6308C842.948 30.6299 842.407 28.4127 842.028 25.9792C841.65 23.5456 841.46 21.1932 841.46 18.9219C841.46 17.1914 841.596 15.2987 841.866 13.2437C848.518 10.8643 857.684 9.1067 869.365 7.97105C881.046 6.8354 892.294 6.26758 903.11 6.26758C911.384 6.26758 918.495 6.91652 924.444 8.21441C930.392 9.51229 935.368 12.4596 939.369 17.0562C943.425 21.5988 945.453 28.4127 945.453 37.4979C945.453 42.0405 944.48 47.3402 942.533 53.397C940.64 59.3997 938.207 65.2672 935.232 70.9995C932.312 76.6777 929.365 81.2744 926.391 84.7895C922.01 90.0351 917.143 93.1176 911.789 94.0369C902.921 95.443 893.538 96.146 883.642 96.146C883.425 101.716 883.344 105.718 883.398 108.151L895.485 107.34C897.972 111.396 899.351 116.209 899.622 121.779C899.622 122.05 898.405 123.212 895.972 125.267C893.538 127.322 890.32 129.215 886.318 130.945C882.371 132.676 877.828 133.541 872.691 133.541C867.607 133.541 863.551 132.162 860.523 129.404C857.549 126.592 856.062 121.752 856.062 114.884C855.142 103.636 854.683 89.3591 854.683 72.054L854.601 71.9729ZM905.949 73.3519C907.355 67.4033 908.518 61.1031 909.437 54.4515C910.41 47.7458 910.951 41.9053 911.059 36.9301C910.789 36.4434 909.41 36.0107 906.922 35.6322C904.435 35.2536 901.217 35.0644 897.269 35.0644C894.511 35.0644 891.077 35.1725 886.967 35.3888C886.481 51.7205 885.832 64.8346 885.021 74.7309L905.949 73.3519ZM950.401 114.235C950.401 111.477 950.915 108.692 951.943 105.88C952.97 103.068 954.565 100.418 956.729 97.9306C964.624 101.392 971.492 104.041 977.332 105.88C983.227 107.719 989.284 108.638 995.503 108.638C996.638 108.638 997.801 108.53 998.991 108.314C1000.23 108.097 1001.21 107.8 1001.91 107.421C1002.18 106.826 1002.4 106.069 1002.56 105.15C1002.72 104.177 1002.8 103.392 1002.8 102.798C1002.8 100.148 1001.53 97.8765 998.991 95.9837C996.449 94.091 993.096 92.1983 988.932 90.3055L986.093 88.9265C977.981 84.7625 971.465 81.0311 966.544 77.7323C961.677 74.3794 957.54 69.999 954.133 64.5912C950.78 59.1293 949.104 52.4506 949.104 44.5551C949.104 32.9823 952.321 23.7079 958.757 16.7318C965.246 9.75564 975.548 6.26758 989.662 6.26758C1001.72 6.26758 1011.27 6.99764 1018.3 8.45776C1021.22 10.1883 1023.76 11.9999 1025.92 13.8926C1028.14 15.7313 1030.25 17.9756 1032.25 20.6254C1032.25 24.4109 1031.87 28.5209 1031.11 32.9553C1030.41 37.3357 1029.41 41.3645 1028.11 45.0418C1026.87 48.7192 1025.52 51.369 1024.06 52.9914C1022.81 53.5862 1021.43 54.0459 1019.92 54.3704C1018.41 54.6408 1016.54 54.776 1014.32 54.776C1012 54.776 1010.1 54.6137 1008.64 54.2893C1007.18 53.9648 1005.83 53.424 1004.59 52.6669L1002.07 35.7944C998.937 34.9292 995.611 34.3073 992.096 33.9287C988.581 33.4961 986.201 33.3068 984.958 33.3609C982.957 34.2802 981.578 35.5781 980.821 37.2545C980.118 38.8769 979.766 40.8237 979.766 43.095C979.766 45.5285 980.415 47.6376 981.713 49.4222C983.065 51.1527 984.687 52.5858 986.58 53.7214C988.473 54.8571 990.906 56.1279 993.88 57.534L997.45 59.3186C1005.18 63.3744 1011.27 66.9166 1015.7 69.945C1020.14 72.9734 1023.84 76.8129 1026.81 81.4637C1029.84 86.0603 1031.36 91.6304 1031.36 98.1739C1031.36 105.799 1029.36 112.37 1025.35 117.886C1021.35 123.347 1016.21 127.295 1009.94 129.729C1006.53 131.081 1002.78 132.054 998.666 132.649C994.556 133.244 989.798 133.541 984.39 133.541C980.712 133.541 976.765 133.082 972.547 132.162C968.328 131.243 964.218 129.621 960.217 127.295C956.269 124.97 953.105 121.86 950.726 117.967C950.51 116.939 950.401 115.695 950.401 114.235Z" fill="#3AB6BC"/>
</g>
<defs>
<filter id="filter0_b_47_2" x="-25.824" y="-26.2347" width="1084.65" height="186.438" filterUnits="userSpaceOnUse" color-interpolation-filters="sRGB">
<feFlood flood-opacity="0" result="BackgroundImageFix"/>
<feGaussianBlur in="BackgroundImageFix" stdDeviation="13.2903"/>
<feComposite in2="SourceAlpha" operator="in" result="effect1_backgroundBlur_47_2"/>
<feBlend mode="normal" in="SourceGraphic" in2="effect1_backgroundBlur_47_2" result="shape"/>
</filter>
</defs>
</svg>
