<svg width="8" height="8" viewBox="0 0 8 8" fill="none" xmlns="http://www.w3.org/2000/svg">
<circle cx="4" cy="4" r="4" fill="#D9D9D9"/>
<path d="M3.45931 5.86595C3.45931 5.73437 3.50865 5.63363 3.60734 5.56373C3.70602 5.49383 3.81704 5.45888 3.9404 5.45888C4.05964 5.45888 4.1686 5.49383 4.26729 5.56373C4.36597 5.63363 4.41532 5.72409 4.41532 5.83511C4.41532 5.96258 4.36803 6.06538 4.27346 6.1435C4.17888 6.22163 4.06581 6.26069 3.93423 6.26069C3.87666 6.26069 3.8191 6.25041 3.76153 6.22985C3.70397 6.20929 3.65257 6.18051 3.60734 6.1435C3.56211 6.1065 3.5251 6.06538 3.49632 6.02015C3.47165 5.9708 3.45931 5.91941 3.45931 5.86595ZM3.10158 2.49835C3.19615 2.38733 3.32568 2.29687 3.49015 2.22697C3.65874 2.15707 3.82938 2.12212 4.00208 2.12212C4.34336 2.12212 4.6024 2.21052 4.77921 2.38733C4.96013 2.56414 5.05059 2.82319 5.05059 3.16447C5.05059 3.25082 5.03209 3.34334 4.99508 3.44202C4.95808 3.54071 4.91079 3.64145 4.85323 3.74424C4.79566 3.84293 4.73193 3.94367 4.66203 4.04646C4.59212 4.14926 4.52222 4.25 4.45232 4.34868L4.39681 4.42886H4.40298C4.35775 4.48643 4.32485 4.55839 4.3043 4.64474C4.28785 4.73108 4.27346 4.81538 4.26112 4.89761C4.25701 4.91817 4.2529 4.94696 4.24879 4.98396C4.24879 5.02097 4.24467 5.0477 4.23645 5.06414C4.22 5.1176 4.183 5.15872 4.12543 5.1875C4.06786 5.21628 4.00002 5.23067 3.92189 5.23067C3.87255 5.23067 3.82321 5.22451 3.77387 5.21217C3.72864 5.19983 3.68752 5.18133 3.65051 5.15666C3.61351 5.12788 3.58472 5.09498 3.56416 5.05798C3.5436 5.01686 3.53538 4.96957 3.53949 4.91612C3.54772 4.80921 3.56211 4.68791 3.58267 4.55222C3.60734 4.41242 3.65462 4.28906 3.72453 4.18215C3.7492 4.14926 3.77592 4.11431 3.80471 4.0773C3.83349 4.03618 3.85816 3.99918 3.87872 3.96628C3.92806 3.89638 3.9774 3.82648 4.02675 3.75658C4.0802 3.68256 4.12543 3.61266 4.16244 3.54687C4.20356 3.47697 4.23645 3.41118 4.26112 3.34951C4.2899 3.28372 4.3043 3.22615 4.3043 3.17681C4.3043 3.01233 4.27551 2.8972 4.21795 2.83141C4.16038 2.76151 4.09048 2.72656 4.00824 2.72656C3.95479 2.72656 3.88694 2.74712 3.80471 2.78824C3.72247 2.82936 3.66079 2.86842 3.61967 2.90543C3.53744 2.98355 3.4552 3.01645 3.37296 3.00411C3.29484 2.98766 3.22905 2.95066 3.17559 2.89309C3.12214 2.83552 3.08719 2.76768 3.07074 2.68955C3.0543 2.61143 3.06458 2.5477 3.10158 2.49835Z" fill="white"/>
</svg>
