<svg width="15" height="15" viewBox="0 0 15 15" fill="none" xmlns="http://www.w3.org/2000/svg">
<circle cx="7.5" cy="7.5" r="7.5" fill="#D9D9D9" fill-opacity="0.46"/>
<path d="M6.48598 10.7486C6.48598 10.5019 6.5785 10.313 6.76353 10.182C6.94856 10.0509 7.15673 9.98536 7.38802 9.98536C7.6116 9.98536 7.81591 10.0509 8.00094 10.182C8.18597 10.313 8.27849 10.4826 8.27849 10.6908C8.27849 10.9298 8.18983 11.1225 8.0125 11.269C7.83518 11.4155 7.62316 11.4888 7.37645 11.4888C7.26852 11.4888 7.16058 11.4695 7.05264 11.4309C6.94471 11.3924 6.84834 11.3384 6.76353 11.269C6.67872 11.1996 6.60934 11.1225 6.55537 11.0377C6.50911 10.9452 6.48598 10.8488 6.48598 10.7486ZM5.81524 4.43437C5.99256 4.22621 6.23542 4.0566 6.5438 3.92553C6.8599 3.79447 7.17985 3.72893 7.50366 3.72893C8.14357 3.72893 8.62928 3.89469 8.9608 4.22621C9.30002 4.55773 9.46964 5.04344 9.46964 5.68334C9.46964 5.84525 9.43494 6.01872 9.36556 6.20375C9.29617 6.38878 9.20751 6.57767 9.09957 6.77041C8.99163 6.95544 8.87213 7.14433 8.74107 7.33707C8.61 7.52982 8.47894 7.71871 8.34787 7.90374L8.24379 8.05408H8.25536C8.17055 8.16201 8.10887 8.29693 8.07033 8.45884C8.03949 8.62074 8.0125 8.77879 7.98937 8.93298C7.98166 8.97153 7.97395 9.0255 7.96624 9.09489C7.96624 9.16427 7.95853 9.21439 7.94312 9.24523C7.91228 9.34545 7.84289 9.42255 7.73495 9.47652C7.62702 9.53049 7.49981 9.55747 7.35332 9.55747C7.26081 9.55747 7.16829 9.5459 7.07577 9.52278C6.99097 9.49965 6.91387 9.46495 6.84448 9.41869C6.7751 9.36473 6.72113 9.30305 6.68258 9.23366C6.64403 9.15656 6.62861 9.0679 6.63632 8.96768C6.65174 8.76722 6.67872 8.53979 6.71727 8.28537C6.76353 8.02324 6.85219 7.79195 6.98326 7.5915C7.02952 7.52982 7.07963 7.46428 7.1336 7.3949C7.18756 7.3178 7.23382 7.24841 7.27237 7.18674C7.36489 7.05567 7.4574 6.92461 7.54992 6.79354C7.65015 6.65477 7.73495 6.5237 7.80434 6.40035C7.88144 6.26928 7.94312 6.14593 7.98937 6.03028C8.04334 5.90692 8.07033 5.79899 8.07033 5.70647C8.07033 5.39808 8.01636 5.18221 7.90842 5.05886C7.80049 4.92779 7.66942 4.86226 7.51523 4.86226C7.415 4.86226 7.28779 4.90081 7.1336 4.97791C6.9794 5.055 6.86376 5.12824 6.78666 5.19763C6.63247 5.34412 6.47827 5.40579 6.32408 5.38266C6.17759 5.35183 6.05424 5.28244 5.95401 5.1745C5.85379 5.06657 5.78825 4.93936 5.75741 4.79287C5.72658 4.64639 5.74585 4.52689 5.81524 4.43437Z" fill="white"/>
</svg>
